<?xml version="1.0" encoding="UTF-8" standalone="no"?><svg xmlns="http://www.w3.org/2000/svg" xmlns:xlink="http://www.w3.org/1999/xlink" contentScriptType="application/ecmascript" contentStyleType="text/css" height="352px" preserveAspectRatio="none" style="width:416px;height:352px;background:#FFFFFF;" version="1.1" viewBox="0 0 416 352" width="416px" zoomAndPan="magnify"><defs><filter height="300%" id="f1fl87bjtbau90" width="300%" x="-1" y="-1"><feGaussianBlur result="blurOut" stdDeviation="2.0"/><feColorMatrix in="blurOut" result="blurOut2" type="matrix" values="0 0 0 0 0 0 0 0 0 0 0 0 0 0 0 0 0 0 .4 0"/><feOffset dx="4.0" dy="4.0" in="blurOut2" result="blurOut3"/><feBlend in="SourceGraphic" in2="blurOut3" mode="normal"/></filter></defs><g><rect fill="#FFFFFF" filter="url(#f1fl87bjtbau90)" height="101.3984" style="stroke:#A80036;stroke-width:1.0;" width="10" x="175" y="148.5625"/><line style="stroke:#A80036;stroke-width:1.0;stroke-dasharray:5.0,5.0;" x1="42" x2="42" y1="88.2969" y2="267.9609"/><line style="stroke:#A80036;stroke-width:1.0;stroke-dasharray:5.0,5.0;" x1="179.5" x2="179.5" y1="88.2969" y2="267.9609"/><line style="stroke:#A80036;stroke-width:1.0;stroke-dasharray:5.0,5.0;" x1="272.5" x2="272.5" y1="88.2969" y2="267.9609"/><line style="stroke:#A80036;stroke-width:1.0;stroke-dasharray:5.0,5.0;" x1="370.5" x2="370.5" y1="88.2969" y2="267.9609"/><text fill="#000000" font-family="sans-serif" font-size="14" lengthAdjust="spacing" textLength="68" x="5" y="84.9951">Utilisateur</text><ellipse cx="42" cy="15" fill="#FEFECE" filter="url(#f1fl87bjtbau90)" rx="8" ry="8" style="stroke:#A80036;stroke-width:2.0;"/><path d="M42,23 L42,50 M29,31 L55,31 M42,50 L29,65 M42,50 L55,65 " fill="none" filter="url(#f1fl87bjtbau90)" style="stroke:#A80036;stroke-width:2.0;"/><text fill="#000000" font-family="sans-serif" font-size="14" lengthAdjust="spacing" textLength="68" x="5" y="279.9561">Utilisateur</text><ellipse cx="42" cy="293.2578" fill="#FEFECE" filter="url(#f1fl87bjtbau90)" rx="8" ry="8" style="stroke:#A80036;stroke-width:2.0;"/><path d="M42,301.2578 L42,328.2578 M29,309.2578 L55,309.2578 M42,328.2578 L29,343.2578 M42,328.2578 L55,343.2578 " fill="none" filter="url(#f1fl87bjtbau90)" style="stroke:#A80036;stroke-width:2.0;"/><rect fill="#FEFECE" filter="url(#f1fl87bjtbau90)" height="30.2969" style="stroke:#A80036;stroke-width:1.5;" width="57" x="149.5" y="53"/><text fill="#000000" font-family="sans-serif" font-size="14" lengthAdjust="spacing" textLength="43" x="156.5" y="72.9951">login()</text><rect fill="#FEFECE" filter="url(#f1fl87bjtbau90)" height="30.2969" style="stroke:#A80036;stroke-width:1.5;" width="57" x="149.5" y="266.9609"/><text fill="#000000" font-family="sans-serif" font-size="14" lengthAdjust="spacing" textLength="43" x="156.5" y="286.9561">login()</text><rect fill="#FEFECE" filter="url(#f1fl87bjtbau90)" height="30.2969" style="stroke:#A80036;stroke-width:1.5;" width="100" x="220.5" y="53"/><text fill="#000000" font-family="sans-serif" font-size="14" lengthAdjust="spacing" textLength="86" x="227.5" y="72.9951">placeOrder()</text><rect fill="#FEFECE" filter="url(#f1fl87bjtbau90)" height="30.2969" style="stroke:#A80036;stroke-width:1.5;" width="100" x="220.5" y="266.9609"/><text fill="#000000" font-family="sans-serif" font-size="14" lengthAdjust="spacing" textLength="86" x="227.5" y="286.9561">placeOrder()</text><rect fill="#FEFECE" filter="url(#f1fl87bjtbau90)" height="30.2969" style="stroke:#A80036;stroke-width:1.5;" width="68" x="334.5" y="53"/><text fill="#000000" font-family="sans-serif" font-size="14" lengthAdjust="spacing" textLength="54" x="341.5" y="72.9951">logout()</text><rect fill="#FEFECE" filter="url(#f1fl87bjtbau90)" height="30.2969" style="stroke:#A80036;stroke-width:1.5;" width="68" x="334.5" y="266.9609"/><text fill="#000000" font-family="sans-serif" font-size="14" lengthAdjust="spacing" textLength="54" x="341.5" y="286.9561">logout()</text><rect fill="#FFFFFF" filter="url(#f1fl87bjtbau90)" height="101.3984" style="stroke:#A80036;stroke-width:1.0;" width="10" x="175" y="148.5625"/><polygon fill="#A80036" points="168,115.4297,178,119.4297,168,123.4297,172,119.4297" style="stroke:#A80036;stroke-width:1.0;"/><line style="stroke:#A80036;stroke-width:1.0;" x1="42" x2="174" y1="119.4297" y2="119.4297"/><text fill="#000000" font-family="sans-serif" font-size="13" lengthAdjust="spacing" textLength="114" x="49" y="114.3638">email &amp; password</text><polygon fill="#A80036" points="53,144.5625,43,148.5625,53,152.5625,49,148.5625" style="stroke:#A80036;stroke-width:1.0;"/><line style="stroke:#A80036;stroke-width:1.0;" x1="47" x2="174" y1="148.5625" y2="148.5625"/><text fill="#000000" font-family="sans-serif" font-size="13" lengthAdjust="spacing" textLength="88" x="59" y="143.4966">session token</text><polygon fill="#A80036" points="260.5,173.6953,270.5,177.6953,260.5,181.6953,264.5,177.6953" style="stroke:#A80036;stroke-width:1.0;"/><line style="stroke:#A80036;stroke-width:1.0;" x1="42" x2="266.5" y1="177.6953" y2="177.6953"/><text fill="#000000" font-family="sans-serif" font-size="13" lengthAdjust="spacing" textLength="157" x="49" y="172.6294">session token, order info</text><polygon fill="#A80036" points="53,202.8281,43,206.8281,53,210.8281,49,206.8281" style="stroke:#A80036;stroke-width:1.0;"/><line style="stroke:#A80036;stroke-width:1.0;" x1="47" x2="271.5" y1="206.8281" y2="206.8281"/><text fill="#000000" font-family="sans-serif" font-size="13" lengthAdjust="spacing" textLength="15" x="59" y="201.7622">ok</text><polygon fill="#A80036" points="358.5,216.8281,368.5,220.8281,358.5,224.8281,362.5,220.8281" style="stroke:#A80036;stroke-width:1.0;"/><line style="stroke:#A80036;stroke-width:1.0;" x1="42" x2="364.5" y1="220.8281" y2="220.8281"/><polygon fill="#A80036" points="53,245.9609,43,249.9609,53,253.9609,49,249.9609" style="stroke:#A80036;stroke-width:1.0;"/><line style="stroke:#A80036;stroke-width:1.0;" x1="47" x2="369.5" y1="249.9609" y2="249.9609"/><text fill="#000000" font-family="sans-serif" font-size="13" lengthAdjust="spacing" textLength="15" x="59" y="244.895">ok</text><!--MD5=[212a35b484849c8f499ef1beb75b5a44]
@startuml sequenceDiagramUtilisateur
    actor Utilisateur
    Utilisateur -> "login()" : email & password
    "login()" -> Utilisateur : session token
    activate "login()"
    Utilisateur -> "placeOrder()" : session token, order info
    "placeOrder()" -> Utilisateur : ok
    Utilisateur -> "logout()"
    "logout()" -> Utilisateur : ok
    deactivate "login()"
@enduml

PlantUML version 1.2021.14(Fri Nov 12 17:46:50 CET 2021)
(GPL source distribution)
Java Runtime: OpenJDK Runtime Environment
JVM: OpenJDK 64-Bit Server VM
Default Encoding: UTF-8
Language: fr
Country: FR
--></g></svg>