<?xml version="1.0" encoding="UTF-8" standalone="no"?><svg xmlns="http://www.w3.org/2000/svg" xmlns:xlink="http://www.w3.org/1999/xlink" contentScriptType="application/ecmascript" contentStyleType="text/css" height="352px" preserveAspectRatio="none" style="width:428px;height:352px;background:#FFFFFF;" version="1.1" viewBox="0 0 428 352" width="428px" zoomAndPan="magnify"><defs><filter height="300%" id="fctj165q3jkj6" width="300%" x="-1" y="-1"><feGaussianBlur result="blurOut" stdDeviation="2.0"/><feColorMatrix in="blurOut" result="blurOut2" type="matrix" values="0 0 0 0 0 0 0 0 0 0 0 0 0 0 0 0 0 0 .4 0"/><feOffset dx="4.0" dy="4.0" in="blurOut2" result="blurOut3"/><feBlend in="SourceGraphic" in2="blurOut3" mode="normal"/></filter></defs><g><rect fill="#FFFFFF" filter="url(#fctj165q3jkj6)" height="101.3984" style="stroke:#A80036;stroke-width:1.0;" width="10" x="186.5" y="148.5625"/><line style="stroke:#A80036;stroke-width:1.0;stroke-dasharray:5.0,5.0;" x1="53" x2="53" y1="88.2969" y2="267.9609"/><line style="stroke:#A80036;stroke-width:1.0;stroke-dasharray:5.0,5.0;" x1="191" x2="191" y1="88.2969" y2="267.9609"/><line style="stroke:#A80036;stroke-width:1.0;stroke-dasharray:5.0,5.0;" x1="284" x2="284" y1="88.2969" y2="267.9609"/><line style="stroke:#A80036;stroke-width:1.0;stroke-dasharray:5.0,5.0;" x1="382" x2="382" y1="88.2969" y2="267.9609"/><text fill="#000000" font-family="sans-serif" font-size="14" lengthAdjust="spacing" textLength="91" x="5" y="84.9951">Responsable</text><ellipse cx="53.5" cy="15" fill="#FEFECE" filter="url(#fctj165q3jkj6)" rx="8" ry="8" style="stroke:#A80036;stroke-width:2.0;"/><path d="M53.5,23 L53.5,50 M40.5,31 L66.5,31 M53.5,50 L40.5,65 M53.5,50 L66.5,65 " fill="none" filter="url(#fctj165q3jkj6)" style="stroke:#A80036;stroke-width:2.0;"/><text fill="#000000" font-family="sans-serif" font-size="14" lengthAdjust="spacing" textLength="91" x="5" y="279.9561">Responsable</text><ellipse cx="53.5" cy="293.2578" fill="#FEFECE" filter="url(#fctj165q3jkj6)" rx="8" ry="8" style="stroke:#A80036;stroke-width:2.0;"/><path d="M53.5,301.2578 L53.5,328.2578 M40.5,309.2578 L66.5,309.2578 M53.5,328.2578 L40.5,343.2578 M53.5,328.2578 L66.5,343.2578 " fill="none" filter="url(#fctj165q3jkj6)" style="stroke:#A80036;stroke-width:2.0;"/><rect fill="#FEFECE" filter="url(#fctj165q3jkj6)" height="30.2969" style="stroke:#A80036;stroke-width:1.5;" width="57" x="161" y="53"/><text fill="#000000" font-family="sans-serif" font-size="14" lengthAdjust="spacing" textLength="43" x="168" y="72.9951">login()</text><rect fill="#FEFECE" filter="url(#fctj165q3jkj6)" height="30.2969" style="stroke:#A80036;stroke-width:1.5;" width="57" x="161" y="266.9609"/><text fill="#000000" font-family="sans-serif" font-size="14" lengthAdjust="spacing" textLength="43" x="168" y="286.9561">login()</text><rect fill="#FEFECE" filter="url(#fctj165q3jkj6)" height="30.2969" style="stroke:#A80036;stroke-width:1.5;" width="100" x="232" y="53"/><text fill="#000000" font-family="sans-serif" font-size="14" lengthAdjust="spacing" textLength="86" x="239" y="72.9951">placeOrder()</text><rect fill="#FEFECE" filter="url(#fctj165q3jkj6)" height="30.2969" style="stroke:#A80036;stroke-width:1.5;" width="100" x="232" y="266.9609"/><text fill="#000000" font-family="sans-serif" font-size="14" lengthAdjust="spacing" textLength="86" x="239" y="286.9561">placeOrder()</text><rect fill="#FEFECE" filter="url(#fctj165q3jkj6)" height="30.2969" style="stroke:#A80036;stroke-width:1.5;" width="68" x="346" y="53"/><text fill="#000000" font-family="sans-serif" font-size="14" lengthAdjust="spacing" textLength="54" x="353" y="72.9951">logout()</text><rect fill="#FEFECE" filter="url(#fctj165q3jkj6)" height="30.2969" style="stroke:#A80036;stroke-width:1.5;" width="68" x="346" y="266.9609"/><text fill="#000000" font-family="sans-serif" font-size="14" lengthAdjust="spacing" textLength="54" x="353" y="286.9561">logout()</text><rect fill="#FFFFFF" filter="url(#fctj165q3jkj6)" height="101.3984" style="stroke:#A80036;stroke-width:1.0;" width="10" x="186.5" y="148.5625"/><polygon fill="#A80036" points="179.5,115.4297,189.5,119.4297,179.5,123.4297,183.5,119.4297" style="stroke:#A80036;stroke-width:1.0;"/><line style="stroke:#A80036;stroke-width:1.0;" x1="53.5" x2="185.5" y1="119.4297" y2="119.4297"/><text fill="#000000" font-family="sans-serif" font-size="13" lengthAdjust="spacing" textLength="114" x="60.5" y="114.3638">email &amp; password</text><polygon fill="#A80036" points="64.5,144.5625,54.5,148.5625,64.5,152.5625,60.5,148.5625" style="stroke:#A80036;stroke-width:1.0;"/><line style="stroke:#A80036;stroke-width:1.0;" x1="58.5" x2="185.5" y1="148.5625" y2="148.5625"/><text fill="#000000" font-family="sans-serif" font-size="13" lengthAdjust="spacing" textLength="88" x="70.5" y="143.4966">session token</text><polygon fill="#A80036" points="272,173.6953,282,177.6953,272,181.6953,276,177.6953" style="stroke:#A80036;stroke-width:1.0;"/><line style="stroke:#A80036;stroke-width:1.0;" x1="53.5" x2="278" y1="177.6953" y2="177.6953"/><text fill="#000000" font-family="sans-serif" font-size="13" lengthAdjust="spacing" textLength="157" x="60.5" y="172.6294">session token, order info</text><polygon fill="#A80036" points="64.5,202.8281,54.5,206.8281,64.5,210.8281,60.5,206.8281" style="stroke:#A80036;stroke-width:1.0;"/><line style="stroke:#A80036;stroke-width:1.0;" x1="58.5" x2="283" y1="206.8281" y2="206.8281"/><text fill="#000000" font-family="sans-serif" font-size="13" lengthAdjust="spacing" textLength="15" x="70.5" y="201.7622">ok</text><polygon fill="#A80036" points="370,216.8281,380,220.8281,370,224.8281,374,220.8281" style="stroke:#A80036;stroke-width:1.0;"/><line style="stroke:#A80036;stroke-width:1.0;" x1="53.5" x2="376" y1="220.8281" y2="220.8281"/><polygon fill="#A80036" points="64.5,245.9609,54.5,249.9609,64.5,253.9609,60.5,249.9609" style="stroke:#A80036;stroke-width:1.0;"/><line style="stroke:#A80036;stroke-width:1.0;" x1="58.5" x2="381" y1="249.9609" y2="249.9609"/><text fill="#000000" font-family="sans-serif" font-size="13" lengthAdjust="spacing" textLength="15" x="70.5" y="244.895">ok</text><!--MD5=[40ec43c35c8e7c40e4e1d43a6db2895a]
@startuml sequenceDiagramResponsable
    actor Responsable
    Responsable -> "login()" : email & password
    "login()" -> Responsable : session token
    activate "login()"
    Responsable -> "placeOrder()" : session token, order info
    "placeOrder()" -> Responsable : ok
    Responsable -> "logout()"
    "logout()" -> Responsable : ok
    deactivate "login()"
@enduml

PlantUML version 1.2021.14(Fri Nov 12 17:46:50 CET 2021)
(GPL source distribution)
Java Runtime: OpenJDK Runtime Environment
JVM: OpenJDK 64-Bit Server VM
Default Encoding: UTF-8
Language: fr
Country: FR
--></g></svg>